<?xml version="1.0" encoding="UTF-8" standalone="no"?>
<!-- Created with Inkscape (http://www.inkscape.org/) -->
<svg xmlns:dc="http://purl.org/dc/elements/1.1/" xmlns:cc="http://creativecommons.org/ns#" xmlns:rdf="http://www.w3.org/1999/02/22-rdf-syntax-ns#" xmlns:svg="http://www.w3.org/2000/svg" xmlns="http://www.w3.org/2000/svg" xmlns:sodipodi="http://sodipodi.sourceforge.net/DTD/sodipodi-0.dtd" xmlns:inkscape="http://www.inkscape.org/namespaces/inkscape" viewBox="0 0 500.00001 260.00002" id="svg4714" version="1.1" inkscape:version="0.91pre3 r13670" sodipodi:docname="Dog_Bone.svg">
  <defs id="defs4716"/>
  <sodipodi:namedview id="base" pagecolor="#ffffff" bordercolor="#666666" borderopacity="1.0" inkscape:pageopacity="0.0" inkscape:pageshadow="2" inkscape:zoom="0.35" inkscape:cx="78.602285" inkscape:cy="-114.74693" inkscape:document-units="px" inkscape:current-layer="layer1" showgrid="false" showguides="true" fit-margin-top="0" fit-margin-left="0" fit-margin-right="0" fit-margin-bottom="0" inkscape:window-width="1024" inkscape:window-height="706" inkscape:window-x="-8" inkscape:window-y="-8" inkscape:window-maximized="1"/>
  <metadata id="metadata4719">
    <rdf:RDF>
      <cc:Work rdf:about="">
        <dc:format>image/svg+xml</dc:format>
        <dc:type rdf:resource="http://purl.org/dc/dcmitype/StillImage"/>
        <dc:title/>
      </cc:Work>
    </rdf:RDF>
  </metadata>
  <g inkscape:label="Layer 1" inkscape:groupmode="layer" id="layer1" transform="translate(-128.35708,-47.849748)">
    <g id="g5802" transform="matrix(1.0901471,0,0,1.0984494,798.2525,697.80737)">
      <g transform="matrix(2.9474954,0,0,2.9474954,-667.12894,-731.83158)" id="g5795">


        <path style="opacity:1;fill:#FFEFAD;fill-opacity:1;stroke:none;stroke-width:3;stroke-miterlimit:4;stroke-dasharray:none;stroke-dashoffset:0;stroke-opacity:1" d="M 39.539062,51.328125 C 27.349607,50.372487 16.894998,66.588602 25.349609,76.478516 c 2.942995,3.893683 6.62826,7.904741 8.603516,12.160156 -5.720624,6.326434 -14.669078,14.373218 -10.851563,23.892578 5.379616,13.89729 29.44649,14.18286 33.81836,-0.61719 -0.0692,-4.95198 2.961488,-11.88326 9.054608,-9.93854 20.285739,0.40007 41.03191,-1.2976 60.88289,1.32721 -2.49456,16.13345 21.50359,27.05988 32.02344,14.54493 7.34545,-6.65519 4.33462,-19.372836 -3.71875,-24.056644 -4.27158,-5.773332 -0.33723,-13.110859 4.83789,-16.544922 7.08241,-9.205809 0.74416,-24.628401 -11.04883,-25.4375 -10.4083,-2.064813 -22.43377,6.12013 -21.79687,17.246094 -3.08647,6.773649 -11.45655,2.790937 -16.95312,3.651109 -17.234571,0.02368 -34.622872,0.864393 -51.697274,-1.127672 0.952388,-10.50184 -8.37263,-20.612452 -18.964844,-20.25 z" id="path5574" inkscape:connector-curvature="0"/>
        <path style="opacity:1;fill:#fff;fill-opacity:1;stroke:none;stroke-width:3;stroke-miterlimit:4;stroke-dasharray:none;stroke-dashoffset:0;stroke-opacity:1" d="m 38.992188,55.167969 c -10.499749,-0.424802 -17.284604,15.008352 -8.398438,21.65039 3.877124,4.064017 9.534011,11.174735 4.458878,16.438941 -5.637209,4.992806 -12.536042,14.72912 -5.900284,21.48684 6.485945,6.79479 21.292331,5.67082 23.691406,-4.41602 0.07554,-7.94859 8.146819,-14.988892 16.037075,-12.323725 20.836422,0.180401 41.816115,-1.278713 62.517615,1.808105 -6.15175,13.95016 15.68695,26.24754 25.02734,15.07812 5.90989,-6.73386 0.56302,-16.189124 -5.5918,-20.498042 -4.66631,-8.24873 2.28057,-16.640428 7.57422,-22.429687 3.41796,-9.349857 -7.0559,-19.966006 -16.5,-16.050782 -6.86546,1.577429 -11.66436,8.474258 -11.09179,15.259766 -5.32182,8.659805 -16.56031,5.067327 -24.80635,5.448162 C 88.804611,76.90586 71.42016,77.751465 54.400391,74.621094 56.619156,65.061288 48.987273,54.881693 38.992188,55.167969 Z" id="path5630" inkscape:connector-curvature="0"/>
      </g>
    </g>
  </g>
</svg>
