<?xml version="1.0" encoding="utf-8"?>
<!-- Generator: Adobe Illustrator 25.0.1, SVG Export Plug-In . SVG Version: 6.00 Build 0)  -->
<svg version="1.1" id="Layer_1" xmlns="http://www.w3.org/2000/svg" xmlns:xlink="http://www.w3.org/1999/xlink" x="0px" y="0px"
	 viewBox="0 0 579 650" style="enable-background:new 0 0 579 650;" xml:space="preserve">
<style type="text/css">
	.st0{fill:#202126;}
	.st1{fill:#C2563D;}
	.st2{fill:#FFFFFF;}
	.st3{fill:#A1C7CA;}
	.st4{fill:#5F564D;}
	.st5{fill:#E1C470;}
	.st6{fill:#78797B;}
</style>
<g>
	<g id="_x23_202126ff">
		<path class="st0" d="M270.1,2.8c18.3-1.4,36.6-0.2,54.8,0.7c16.8,1.6,33.6,3.7,50.1,7.3c30,6.5,59.2,17.4,85.2,33.9
			c19.2,12.1,36.7,27.3,51.1,44.9c13.4,16,24.2,34.1,32.8,53.1c16.1,36.2,23.9,75.6,26.3,115c0.3,13.5,1.8,27,0.4,40.5
			c-0.6,25.4-3.3,50.6-7.4,75.7c-4.3,26-10,51.9-18.3,77c-5.1,14.9-11.2,29.7-20.2,42.7c-3,4.6-8.2,7.7-9.9,13.1
			c-2.6,8.1-5.4,16-8,24.1c-1.6,5.8-7.5,8.7-12.5,11.3c-11,2.8-22.6,0.4-33.4-2.4c-5.2,3.7-8.3,9.4-11.3,14.9
			c-4.1,7.9-5.2,16.9-7.8,25.3c-2.2,7.6-5.6,15-10.7,21.1c-2.3,3-5.3,5.4-7.5,8.4c-2.2,3.5-3.5,7.6-6.3,10.8
			c-3.1,3.6-6.6,6.8-10.6,9.4c-7,4.2-15.2,5.8-22.9,8.1c-10,3-20.7,3.2-30.8,1c-2.4-0.4-5-1.3-7.4-0.3c-6.4,2.4-12.2,6.2-18.3,9.3
			h-63.8c-4.8-2.3-9.5-5-14.2-7.4c-3.6-1.8-7.7-3.5-11.7-2.1c-10.6,3-22,4.2-32.8,1.6c-7.8-2-15.8-3.6-23.1-6.8
			c-6.2-3.1-12-7.1-16.7-12.3c-3.2-3.5-4.9-8.4-9.2-10.9c-11.2-7.1-18.6-18.9-22.7-31.3c-2.7-8-3.6-16.4-6.6-24.3
			c-2.1-5.8-7.2-9.7-11.7-13.7c-9.7,1.9-19.8,4.2-29.6,1.8c-3.8-1.5-7.1-4.1-10.2-6.7c-3.3-2.6-4.2-6.8-5.5-10.5
			c-2.2-6.2-4.1-12.5-6.2-18.8c-0.8-2.3-2.4-4.2-4-5.9c-6.2-6.5-10.8-14.3-14.7-22.4c-8.1-16.1-13.4-33.4-18.1-50.7
			C17,391.1,11.1,353.9,8.6,316.5c-0.3-14.2-1.7-28.5-0.5-42.7c1.2-42.5,8.8-85.3,25.5-124.5c9.1-20.7,20.5-40.5,35-57.9
			c9.4-11.9,20.6-22.1,32-31.9c21.8-17.4,47-30.5,73.3-39.6C205,9.4,237.5,4.1,270.1,2.8 M232.8,16.3c-7.5,1.7-15,3.4-22.6,4.9
			c-36.3,9.1-71.4,24.6-100.9,47.9C83.9,88.4,63.1,114,49.6,142.9c7.1,1.9,14.5,2.2,21.7,3.6c2.3-4.3,3.7-9.1,6-13.4
			c3.8-6.9,8.7-13.2,14.3-18.8c10-8.6,22-14.8,34.6-18.4c19.7-5.9,40.4-6.9,60.9-7.5c10.7,0.3,21.3,0.1,32,0.3
			c9.9,1.2,20,0.5,29.9,0.6c30.7,0.1,61.3,0,92,0c6.3,0.1,12.7,0,19-0.7c28.1-0.2,56.6-1.2,84.3,4.8c18.9,4,37.9,12.3,50.1,27.9
			c2.6,2.9,4.1,6.7,7.3,9.1c-1,1,0.3,3.6,1.8,2.9c0.8,4.7,3.2,8.9,4.7,13.4c7.5-0.5,14.9-1.9,22.3-3.1c-2.8-8-7.6-15.2-11.9-22.6
			C505,99.8,487.4,80.9,466.8,66c-10.3-8.4-22.1-14.8-33.8-21.2c-20.6-10.6-42.6-18.6-65.1-24c-17.6-4.7-35.7-7.3-53.9-8.5
			c-13-1.3-26-0.4-39-0.7C260.9,12.7,246.7,13.6,232.8,16.3 M246.1,102.6c-8.3,0.1-16.7-0.3-24.9,0.2c-4.2,0.9-2.8,5.9-2.9,9
			c-0.3,2.2,2,3.6,4,3.6c8.3,0.3,16.6-0.2,24.8,0.2c5,2.5,9.2,6.5,14.2,9c7.6,0.3,15.1,0.1,22.7,0.1c0-1.2,0-2.4,0-3.6
			c-3.9,0-7.9,0-11.8-0.1c-0.4-7.1-0.3-14.2-0.1-21.2c4-0.1,7.9-0.1,11.9-0.1c0-1.2,0-2.4,0-3.5c-6.6-0.6-13.3-0.3-19.9-0.3
			C257.3,95.7,253,103.1,246.1,102.6 M295.7,96.1c0,1.1,0,2.2,0,3.3c4,0.1,7.9,0.1,11.9,0.1c0.1,7.1,0.1,14.3,0,21.4
			c-4,0-7.9,0-11.9,0.1c0,1.1,0,2.3,0,3.4c6.5,0.3,13,0.1,19.5,0.2c1.4-0.1,3,0.2,4.3-0.6c3.7-2.2,7.2-4.8,10.8-7.1
			c1.2-0.7,2.4-1.7,3.8-1.5c7.7-0.1,15.3,0.1,23,0c1.7,0.1,3.4-0.7,4.4-2.1c0.5-2.4,0.4-4.9,0.2-7.3c0-2.3-2.6-3.3-4.6-3.4
			c-8.9-0.2-17.9,0.2-26.8-0.2c-5.7-2.3-10.5-7.8-17.2-6.7C307.3,96.4,301.4,95.1,295.7,96.1 M129.6,104.2
			c-12.2,3.2-23.4,9.9-31.9,19.2c-11.5,12.7-18.4,29.2-20.7,46c1.8,0.3,3.6,0.8,5.4,1.2c-1.8,12.3-3.1,25-0.9,37.3
			c-1.4,0.2-2.7,0.5-4.1,0.7c4.8,24.3,18.6,47.5,39.9,60.8c15.2,9.7,33.9,13.2,51.7,11.3c28.8-2.6,55.6-17,76.3-36.8
			c9.4-9,17.8-19.2,24.5-30.4c9.5-16.6,13.4-36.9,8-55.5c-4.1-14.9-15-27.8-29.2-34c-3.2-1.6-7.7-1.9-8.5-6.1
			c-1.6,0.7-3.1,2.3-5.1,1.8c-4.3-0.6-8.7-1.1-13.1-1.2c-21-0.2-42-0.6-63-0.6c-2.4,0-4.7-0.2-7.1-0.4c1.5-5.4,3.3-10.8,5.4-16.1
			c7.9-0.9,15.8-1.3,23.6-1.9c20-0.9,40.1,0.2,60.1,0c-0.1-0.6-0.2-1.7-0.3-2.3c-16.3-0.9-32.6-1.2-48.8-0.7
			C171.1,97.4,150,98.9,129.6,104.2 M338.7,97.4l-0.4,1.1l0.6,0.9c7.5,0.2,15,0,22.5-0.1c20.3-0.5,40.7-0.2,61,2.2
			c2,5.3,3.7,10.7,5.5,16c-2.6,0.3-5.2,0.5-7.9,0.4c-19.3,0-38.7,0.4-58,0.6c-6.3-0.1-12.7,0.4-18.9,1.5c-1.2-1-2.6-1.7-4.2-2
			c-0.3,1.1-0.6,2.3-0.9,3.4c-15.3,4.6-28.2,16.2-34.1,31c-6.2,15.4-5.5,33.1,0.2,48.5c4.8,13.5,13.7,25.1,23.1,35.7
			c11.8,12.8,25.7,23.8,41.3,31.7c18.9,9.6,40.5,14.7,61.7,12.3c18.2-1.9,35.4-10.7,47.9-23.9c12.4-13.3,21-30.2,24.1-48.1
			c-1.3-0.1-2.6-0.2-3.8-0.4c2.1-12.5,0.5-25.2-0.8-37.7c1.8-0.4,3.7-0.8,5.5-1.4c-2.3-11.2-5.3-22.3-11.1-32.2
			c-8.4-15.1-22.4-27.2-39.1-32c-19.8-5.6-40.4-7.3-60.8-8.2C374.2,96,356.4,96.1,338.7,97.4 M276,103.7c-0.2,4.6-0.3,9.2,0.2,13.8
			c9,0,18-0.1,27,0c0.5-4.6,0.2-9.2,0.2-13.8C294.2,103.6,285.1,103.5,276,103.7 M62.1,171.9c-2.9,10.5-3.9,21.5-3.3,32.3
			c5.7-0.1,11.4,0,17.1-0.2c-0.7-10.1,0.6-20,1-30.1C72,173.3,67.1,172.4,62.1,171.9 M503.2,174l-0.6,0.7c1.4,9.7,1.4,19.6,1.1,29.4
			c5.9,0.1,11.7,0.2,17.6,0.1c-0.1-10.8-0.6-21.7-3.4-32.2C513,172.4,508.1,173.2,503.2,174 M53.8,223.6c-8.5,1.8-17.5,0.9-26,2.8
			c-3,23.7-5.5,47.5-5.5,71.4c-0.8,52.9,6.1,106.2,23.4,156.4c2.5,6.7,4.8,13.5,8.2,19.8c0-4-0.7-8-1.5-11.9
			c-5.5-30.5-9.5-61.3-11.8-92.2c-0.5-13.3-1.5-26.7-0.4-40c0.6-10.8,1.5-21.9,5.7-32.1c3.3-8.1,10.5-13.8,17.7-18.3
			c9.3-5.9,19.8-9.1,29.8-13.4c-8.8-9.7-15.9-21.1-20.4-33.4c-2.2-6.1-3.8-12.4-5.4-18.7C62.9,216.9,58.7,220.7,53.8,223.6
			 M512.2,213.8c-1.1,3-1.9,6.2-2.6,9.3c-2.2,9.3-6.2,18.1-10.9,26.3c-3.5,6.1-8.2,11.4-12.5,17c12,4,24,8.5,34.4,15.9
			c5.9,4.1,11.2,9.4,13.8,16.2c2.8,7.3,3.9,15.2,4.9,22.9c0.8,11.4,1.6,22.9,0.8,34.4c-1.2,34.1-6,68.1-11.6,101.8
			c-0.9,5.1-2.2,10.2-2.2,15.4c1.3-1.8,2.4-3.8,3.2-5.8c15.7-39.3,23.8-81.2,27.1-123.3c2.6-39.2,1.6-78.8-4.6-117.6
			c-8.4-1.2-16.9-1.1-25.2-2.2C521.4,221.4,517.4,216.6,512.2,213.8 M282,243.3c5.4,0.2,10.8,0.1,16.2,0
			C293.1,241.7,286.9,241.1,282,243.3 M265.6,251.8c-2.4,1.2-4.7,2.8-6.6,4.7c-0.9,3.3-2.2,6.4-4,9.2c-1.6,2.3-0.1,4.9,0.7,7.2
			c-1.3,1.3-2.9,2.2-4.6,2.9c-0.3-2.9-1.9-6.2,0-8.9c1.4-2.3,2.8-4.7,3.7-7.3c-3.9,1.4-6.8,4.6-10.3,6.7c-2.9,1.7-5.7,3.5-8.1,5.9
			c0.4,0.4,1.2,1.3,1.6,1.8c-2.7,2.2-5.1,4.7-7.2,7.5c-2.2-0.5-4.4-1.3-6.7-1.4c-3.7,0.7-6.8,2.9-10.1,4.6c8.4,0,16.6-1.7,25-1.1
			c12.1-2.6,24.7,0.7,36.8-2c7.9,1.1,16.5,2.2,24-1.3c0.2,0.5,0.6,1.6,0.7,2.1c5.4,0.3,10.9,0.1,16.4,0.1c4.6,0,9.3,0.4,13.8-0.5
			c-0.6-1.1-1.2-2.1-1.8-3.2c2.3-1.6,4.1-3.9,5.4-6.4c1.1-0.2,2.2-0.4,3.4-0.6c-0.6-5.8-6.3-8.6-10.9-10.9c1,1.9,2.5,3.6,4,5.2
			c-3.9,0-5.6-3.8-8.1-6c-3.2-3.4-8.5-0.6-12.1-3.1c0.4-0.4,1.1-1.2,1.5-1.6c2,0.1,4-0.1,5.9-0.6c-0.6-0.8-1.2-1.4-1.9-2
			c-4.8-1.8-9.9-1.6-14.9-1.4c-8.8-0.4-17.5-0.2-26.3-0.2C271.9,251.3,268.7,251.1,265.6,251.8 M86.6,277.4
			c-10.1,4-20.2,9.2-27,17.9c-4.6,5.9-6.3,13.5-7.1,20.8c-0.5,4.5,1.1,8.9,1.1,13.4c11.7-0.1,23.6,1.9,33.9,7.8
			c2.4,1.6,5.5,1.5,7.8-0.2c3.3-2.3,6.6-4.6,9.8-7.1c3.4-5.5,6.2-11.5,6.6-18c-10,5-21.7,6.9-32.6,4c-3.2-1.2-7.6-3.2-7.3-7.2
			c4.4,1.1,8.6,3.1,13.2,2.9c11.2,0.8,22.2-3.8,31.1-10.4c-6.7-0.2-13.4-0.8-19.9-2.3c-2.2-0.6-4.4,0-6.6-0.5
			c-2.1-1-3.5-2.8-4.7-4.7c6.4,0.5,12.8,2.2,19.3,1.8c5,0.7,10,0.2,15,0.6c0.4-1.5,0.8-2.9,1.2-4.4c1.1,1.2,2.3,2.3,3.3,3.6
			c6.5,0.6,13.1-0.6,19.4-2c-5.5-1.4-11.1-2.8-16.3-5c-5.6-2.2-11.4-4.1-16.4-7.7c-3.6-2.4-6.5-5.7-10.5-7.5
			C95.2,273.4,90.9,275.8,86.6,277.4 M476.5,275.2c-7.2,6-15.7,10.3-24.5,13.6c-5.5,2-11,4.4-16.9,4.6c0.2,0.2,0.5,0.6,0.7,0.8
			c4.3,1.1,8.9,1.1,13.3,1.7c2.6,0.5,5.2-0.4,7.8-1.1c4.9,3,10.9,0.5,16.3,0.7c6.2,0.2,12.1-1.7,18.3-1.8c-2.2,2.4-5.4,3.2-8.3,4.2
			c-7.7,2.3-15.8,3.7-23.9,3.1c6.5,4.5,13.9,7.7,21.5,10c4,0.8,8.2,0.6,12.3,0.4c3.8-0.1,7.1-2.4,10.8-2.9c0.3,1.3,0.6,2.6,0.8,3.9
			c2,0.6,4,1.3,5.8,2.4c-2.9,0.7-5.8,0-8.3-1.5c-11.8,6.3-26.1,4.3-37.7-1.3c0.3,6.2,2.4,12.4,5.9,17.6c3.9,3.5,8,7.3,13.2,8.7
			c1.7,0.7,3.3-0.7,4.8-1.4c10.4-5.6,22.4-7.2,34.1-7.7c0.7-5.2,2.2-10.5,0.7-15.7c-0.8-3-1.2-6.1-2-9.1c-2.6-8.3-8.9-15-16.4-19.2
			c-5.9-4.2-12.7-6.8-19.3-9.6C482.6,274.8,479.1,272.9,476.5,275.2 M338.3,274.9c-1.1,1.7-2.5,3.5-1.5,5.6c2.1-0.5,4.2-1,6.3-1.5
			c0.5,1.5,1.1,3,1.6,4.5c2.1,0.1,4.3-0.1,6.4-0.8c-0.7-1.5-2-2.6-3.5-3.4C344.6,277.8,342.2,274.5,338.3,274.9 M355.5,284.2
			c3.9,0.4,7.7,0.5,11.6,1.3c-3.2-2.1-6.7-4.8-10.8-4.4C354.4,280.9,353.5,283.7,355.5,284.2 M270.2,290.3
			c8.1,11.9,19.2,21.2,30.3,30.1c9.2,7.3,18.4,15.4,23.6,26.2c3.1,6.7,4.6,14.6,2.1,21.8c-1.3,3.9-4.2,7.2-8,8.7
			c-7.5,3.1-15,6.5-21.6,11.2c-8.5,6.2-16.1,14.6-19.2,24.9c-3.8,12-3.9,24.8-4,37.4c-2.3-0.6-4.7,0.2-7,0.6
			c-10.8,2.1-20.9,7.5-28.7,15.3c-9.1,9.1-15.1,20.8-19.3,32.8c-5.8,12.1-16,22.2-28.4,27.4c-10.7,5.3-20.1,13.7-25.7,24.4
			c-4.7,8.8-5.8,19-4.2,28.7c1.3,8,2.2,16.1,5.2,23.7c3,5.7,6,11.7,11.3,15.7c8.4,6.9,19.4,9.3,29.7,12c13.9,1.9,28.3-1.5,40.2-9
			c10.3-6.5,18.6-15.8,24.6-26.3c3.4-5.7,7.3-11.7,13.6-14.5c3.3-1.4,7.3-2.7,10.8-1.1c7,2.9,12.2,8.7,16,15.1
			c9.6,16.9,26.8,28.4,45.4,33.3c6.9,1.7,14,2,21,1.4c10-2.6,20.9-4.6,28.8-11.9c4.9-4.1,7.4-10.2,9.7-15.9c3-0.9,4.8-3.5,6.7-5.7
			c3.2-3.7,5.8-7.9,7.6-12.4c4.6-10.5,5.3-22.2,10.3-32.5c2.9-5.6,6.1-11,10.3-15.8c-3.2-1.5-6.5-2.9-9.5-4.8
			c-3.7-2.6-6.2-6.5-8.6-10.3c-2.1-3.4-0.8-7.4-0.5-11c0.5-3.7-0.5-7.6,1-11.2c1.9-5.2,3.4-10.6,5.3-15.8c2.5-6.7,2.6-14.1,5.5-20.7
			c2.7-6.4,3.1-13.4,4.5-20.2c1.9-5,3.8-10.1,4.7-15.4c2-7.2,4.3-14.3,5.1-21.8c1.6-5.8,0.9-12,3.6-17.4c1.5-9.5,4.9-18.8,5.1-28.5
			c0.2-2.8,2-5.2,2-8c0.6-7.3-4.2-13.5-8.7-18.7c-4.4-7.3-4-16.2-6.8-24.1c-2.6-1.8-5.6-3.2-8.5-4.5c-4.4-1.1-9-1.2-13.5-2
			c-24.5-2.9-48.9-7-73.6-9C329.1,290.3,299.6,289.5,270.2,290.3 M54.4,337c1,5.9,1.1,11.9,1.9,17.8c1.6,18.1,4.3,36.1,6.7,54.2
			c2.9,17.5,5.5,35.2,9.6,52.5c2.1,6.3,2.4,13,4.7,19.2c1.9,2.7,5.9,4.5,9,2.6c1.1,0.2,2.3,0.9,3.5,0.7c1.7-1.1,3.2-2.6,4.7-3.9
			c1.8,0.1,3.5,0.1,5.3,0.2c3.4-4.5,8.9-5.8,13.2-8.9c-0.5,2-1.2,3.9-2,5.8c-1.4,0.1-2.8-0.1-4.1,0.3c-2.2,1.6-3.6,4-5.9,5.4
			c-1.5-0.3-3-0.8-4.6-1c-3.1,1.2-5.6,3.5-8,5.7c1.1,2.3,2.4,4.4,3.9,6.5c-1.8,4.3,3.6,6.8,7,7.5c0.2,2.5,1.7,4.5,3.7,6.1
			c-1.8-0.3-3.6-0.5-5.4-0.7c-1,3.4-1.4,7-2.8,10.2c-1.4,2.2-3.6,3.7-5.5,5.5c0.9,3.4,2.2,6.7,4.1,9.6c9.3,0.6,18.9-0.3,27.5-4
			c4.6-2.5,8.7-5.9,12.7-9.3c0.3-4.2-1.7-8.3-2.6-12.4c-1.7-5.1-1.5-10.9-5-15.2c0.6-3.1,0.8-6.2-0.6-9.1
			c-2.2-10.5-4.4-21.1-6.5-31.7c-0.6-1.8-2-3.2-3.1-4.7c0.5,0,1.6,0.1,2.1,0.2c-6.5-29.6-13.2-59.2-19.5-88.9
			c-0.4-2.2-1.3-4.4-3.4-5.5c-3-1.8-6-4.5-9.6-4.9c-2.9,2.4-3.7,6.5-5,9.9c1.2,2.4,3.4,4.1,5,6.1c-1,0.6-2.7,1.4-3.4-0.1
			c-1.4-2.1-3-4.4-3.3-6.9c0.8-3.9,3.5-7,4.3-10.9C74.2,340.7,64.2,338.6,54.4,337 M508.1,340.6c-2.2,1-4.8,0.4-7.1,1.1
			c-4.4,1.5-8.7,3.3-12.7,5.8c0.9,1.4,2.2,2.6,2.6,4.2c-0.3,2.6-1.6,4.9-2.5,7.3c2.2,0.7,4.5,1.5,6.3,3.1c1.7,1.1,3.6,3.4,5.9,2.1
			c1.8-1.6,3.1-3.8,4.6-5.7c3-0.2,6-0.3,9.1-0.3c-0.6,0.9-1.3,1.8-1.9,2.7c1,1.4,2,2.8,3,4.2c-0.7,0.2-1.5,0.5-2.2,0.7
			c-1-2.9-4.3-3.4-6.9-3.5c-1.9,0.7-2.8,2.7-4,4.1c1.7,0,3.7-0.4,5,1.1c-2.6,0.5-5.2,1.1-7.9,0.9c-3.2-1.9-5.6-5.3-9.3-6.3
			c-5.6,1.2-9.2,6.3-14.6,8.2c-1.9,2.3-0.5,5.9-0.6,8.7c4.8,0.6,9.2,3.1,14.1,2.7c2.4-0.3,4.3-3.8,6.7-1.9c-2.7,1.8-5.4,3.7-8.6,4.5
			c-2.9-0.8-5.7-2-8.7-2.4c0.4,1,0.9,2,1.3,2.9c-1.4,0.1-2.8,0.3-4.2,0.4c0,1.2,0.1,2.5,0.2,3.7c-1.2-1.1-2.5-2.2-3.9-3
			c-3,11.8-5.8,23.6-7.8,35.6c-1.6,6-3.2,12-4.3,18.1c1.4,1.7,3.3,2.8,4.8,4.3c-1.8-0.1-3.5-0.3-5.3-0.5c-2,6.9-3.1,14-4.7,21
			c1.9,0.3,3.9,1.2,5.8,0.4c3.4-1.4,5.5-4.6,7.9-7.2c0.5,0.3,1.5,0.8,2,1.1c-2.8,2.2-5.1,4.9-7.8,7.2c-2.1,1.9-5,1.9-7.6,2.5
			c-1.3,3.1-2.7,6.2-3.1,9.5c-0.4,3.1,1.9,5.5,2.9,8.2c-1.6-0.6-3.2-1.2-4.8-2c-0.4,2.8-1,5.7-1.4,8.5c-0.7,3.7,0.9,7.4,1.1,11.1
			c-1,2-3.8,2.4-4.4,4.6c-1,3.2-2.9,6.6-2.2,10c3.2,5.1,9.1,7.6,14,10.8c7.9,3.5,16.8,3.7,25.3,3.3c1.6,0,2-2,2.6-3.1
			c5.1-14,9.3-28.4,13.1-42.8c3.3-15.4,8.3-30.6,9.4-46.4c-1.2,0.6-2.4,1.2-3.6,1.8c0.4-1.9,1.1-3.8,1.1-5.8
			c-1.1-2.6-3.3-4.4-5.1-6.6c0.1-2.1,0.4-4.2,0.2-6.3c-1.8-3.4-6.6-5.1-9.9-2.8c0.1-1.1,0.1-2.1,0.2-3.2c2.1,0.1,4.4,0.4,6.2-1
			c-1.8-0.9-3.5-1.8-5.3-2.7c1.2-0.5,2.5-1,3.7-1.4c-0.1-1.1-0.2-2.1-0.2-3.1c2.8,1,5.4,2.2,8,3.5c0.6-1.3,1.2-2.5,1.9-3.8
			c2,2.2,4.4,4.2,7.6,4c2-4.9,1.5-10.4,2.5-15.5c1-4.8,1.8-9.7,2.1-14.6c0.4-6.7,2.2-13.2,2.3-19.9c0-1.4-1.1-2.4-1.9-3.5
			c0.3-0.8,0.5-1.7,0.8-2.5c-2.7-0.8-5.5-1.5-8.2-2.4c0-1.9-0.3-3.9,0.2-5.8c0.8-1.3,2.3-1.9,3.5-2.8c-0.2,2.2-0.7,4.4-0.6,6.6
			c1.1,2.9,4.7,2,7.1,2.2c0.6-5.9,1.5-11.7,1.2-17.6C516.6,338.5,511.9,338.3,508.1,340.6 M479.1,353.7c-2,3.6-2.4,7.9-2.9,11.9
			c5.4-3.4,10.2-8.4,11.9-14.8C484.9,351.3,481.2,351.1,479.1,353.7 M161.4,390.5c-4.1,2.5-8.5,5.2-11.4,9.2
			c-2.2,3.9-3.9,8.3-3.7,12.9c4.5,13.5,17.2,25.5,32.1,25.2c3.5,0.9,7.2,0,10.7-0.4c3.4-0.7,7.3-0.9,9.9-3.5
			c8.9-3.8,16-10.8,21.6-18.5c1.6-2.3,4.7-4.2,4.3-7.4c0.1-2.1-2-3.2-3.5-4.3c-4.6-2.9-8.8-6.4-13.2-9.6c-9.3-5.7-20.3-7.8-31-8.3
			C171.8,386.4,165.4,386.6,161.4,390.5 M503.9,414.9c-0.1,0.4-0.4,1.2-0.5,1.6c-1.9-0.3-4.8-0.1-4.9,2.3c0.7,1.9,3.1,2.8,4.1,4.6
			c0.2,2.1-0.7,4.1-1.1,6.1c2.2,1.9,4.6,3.8,7.1,5.3c1.5-6.1,2.7-12.4,2.3-18.7C508.6,415.2,506.2,414.9,503.9,414.9 M78.1,484.1
			c1,4.8,1.8,9.7,3.8,14.2c1.9-0.6,3.9-1,6-1.1c-0.2-3,0.5-6.8-2.1-8.9C83.2,486.8,80.5,485.8,78.1,484.1 M82.2,500
			c1.2,5.2,2.9,10.3,4.4,15.4c0.4,1.6,1.2,3.1,2.3,4.5c3.4-4.4,5.3-9.7,7.1-15c-1.6-1.7-3-3.9-5.3-4.6C87.9,499.7,85,500,82.2,500
			 M285.7,585.5c-8.2,4.6-11.4,14-17,21c-7,9.3-16.6,16.3-26.9,21.4c4.6,1.9,9.5,3,13.9,5.3c3.8,1.7,7,4.5,11,6
			c13.2,4.6,27.5,5.5,41.3,3.4c7.4-1.2,15.2-2,21.7-6.2c5.2-3.3,11-5.5,16.7-7.7c-3.3-1.9-6.9-3.1-10.3-4.9
			c-10.3-5.5-19.3-13.4-26-23c-3.2-5-6.2-10.3-11.1-13.9C295.3,583.9,289.9,582.9,285.7,585.5z"/>
		<path class="st0" d="M251.4,105.1c3.3-2.2,6.8-4.3,10.3-6.2c0,7.4,0,14.8-0.1,22.2c-3.7-1.6-6.7-4.5-9.9-6.9
			C251.6,111.1,251.5,108.1,251.4,105.1z"/>
		<path class="st0" d="M318,98.8c3.6,1.7,6.9,4.1,10.4,6.1c0,2.9,0.2,5.9-0.2,8.8c-2.8,3-6.4,5.2-9.8,7.4
			C318.5,113.7,317.9,106.3,318,98.8z"/>
		<path class="st0" d="M220.3,105.6c0.6-0.2,1.9-0.5,2.5-0.7c1.1,1.8,2.3,4.1,4.7,4.1c5.7,0.6,11.6,1.6,16.8,4.1
			c-7.7,0.2-15.3-0.1-23,0C220,110.9,220.2,108.2,220.3,105.6z"/>
		<path class="st0" d="M352.7,109.1c2.4-0.1,3.3-2.6,4.5-4.3c0.9,0.4,1.8,0.8,2.6,1.3c-0.3,2.3,0.5,5.3-1.5,7
			c-7.8,0.5-15.6,0.2-23.3,0.2C340.7,111,346.6,109.6,352.7,109.1z"/>
		<path class="st0" d="M123,119.4c9.2,0.1,18.5-0.3,27.6,0.5c0.7,3.4,1.5,6.8,2.4,10.1c16,0.3,32.1,0.4,48.1,0.6
			c7,0.4,14,0.5,20.9,0.4c1.8-3.4,3.6-6.7,5.5-10c16.6,0.6,33,9.3,41.9,23.5c5.7,8.7,8.3,19,8.8,29.3c0.2,16.5-5.3,32.8-14.9,46.2
			c-18.2,26-44.8,47-75.6,55.4c-0.3-6.8-0.5-13.5-1-20.3c-2.9,0.7-6.2,0.5-8.8,1.9c-0.1,6.3,0.8,12.6,0.7,19
			c-9.4,3.2-19.6,2.5-29.3,1.2c0.1-6.7,1.8-13.3,1.9-20c-4.1-0.1-8.2-0.7-12.3-1c-2.2,5.5-3.8,11.2-5.9,16.8c-2.5-0.7-4.8-1.7-7.1-3
			c-9.5-5.4-19.4-11-26-20c-2.1-3-5.5-6.8-2.4-10.2C85.2,224.4,81,204,81.8,184.8c1.1-14.8,5.1-30,14.9-41.5
			c6.6-7.5,15.7-13.7,25.9-14C122.6,126,122.8,122.7,123,119.4 M116.5,133.4c-5.4,1.4-10.1,4.8-14.1,8.7
			c-10.7,9.5-15.3,24.1-16.9,37.9c-0.3,11.8-0.9,24,3,35.3c3.4,11.6,9.4,23.4,20.1,29.8c12.2,6.3,26.1,7.8,39.5,9.1
			c10.9,0,21.8,0.8,32.6-1c26-3.3,50.1-18.3,65.6-39.4c8.1-10.7,12.4-23.8,13.4-37.1c0-12.4-4.3-25.4-14-33.5
			c-8.9-7.6-21.1-9.8-32.5-9.1c-17.3-1.2-34.6-0.2-52-0.9C146.2,133.3,131.3,132.5,116.5,133.4z"/>
		<path class="st0" d="M429.3,119.9c9.1-0.8,18.2-0.3,27.3-0.5c0.2,3.3,0.6,6.7,0.8,10c10.5,0.2,19.9,6.8,26.4,14.6
			c10,12.2,13.6,28.3,14.4,43.7c0,18.3-4.2,37.5-15.9,52c0.6,1.4,2.1,3,1.2,4.6c-6.7,13.1-20.1,20.6-32.6,27.3
			c-1.3,0.4-2.9,1.8-4.2,0.8c-2-5.3-3.5-10.8-5.5-16.1c-4.3,0.2-8.5,0.8-12.8,1c0.6,6.7,2.1,13.2,2.4,19.9
			c-9.7,1.3-19.9,1.9-29.4-1.2c0.1-6.5,0.6-13.1,0.3-19.6c-3-0.3-5.9-0.8-8.8-1.2c-0.2,6.7-0.2,13.4-0.7,20.1
			c-30.4-8.2-56.5-28.7-74.7-54.1c-9.5-12.8-15.5-28.5-15.8-44.5c-0.2-12.6,3.3-25.4,11-35.4c9.3-12.3,24.5-19.9,39.9-20.3
			c1.7,3.4,3.5,6.8,5.5,10c22.9-0.4,45.8-0.9,68.7-0.9C427.7,126.8,428.5,123.4,429.3,119.9 M445.6,132.5
			c-15.8,1.4-31.7-0.2-47.5,0.9c-11.3,0.2-22.6,0-33.9,0.1c-8,0.4-16.2,1.2-23.3,5.1c-10.4,5.2-17.5,15.8-19.7,27.1
			c-2.5,14.4,0.7,29.5,8.2,42c6.9,11.3,16.2,21.1,27,28.9c14.4,10.5,32,16.2,49.7,17.7c10,0.5,20,0.4,29.9-0.1
			c11.7-1.3,23.8-2.6,34.5-8c5.3-2.5,8.9-7.2,12.4-11.6c7.2-11,10.7-24.1,11.8-37.2c1-15.5-0.5-32-8.6-45.6
			c-5.3-9.1-14-16.5-24.2-19.4C456.4,132,451,132.1,445.6,132.5z"/>
		<path class="st0" d="M377,380.7c10.6-6.8,24.3-8.5,36.1-4c14.5,4.9,25.5,18.1,28.1,33c-0.1,0.5-0.3,1.6-0.4,2.1
			c-2.5-3.4-4.9-6.9-7.7-10.1c-3.7-4.5-8.2-8.5-13.4-11.1c-9.2-5.8-20.6-6-30.9-4.2c-6.2,1.1-12.1,4-16.9,8
			c-4.2,3.3-8.4,6.8-13.2,9.2c1.8-3.3,3.6-6.6,5.6-9.8C367.9,389,371.6,383.8,377,380.7z"/>
		<path class="st0" d="M174,401.6c5.6-6.2,17.2-5.6,21.2,2.2c3.9,6,0,14.3-6.4,16.6c-7.6,3.2-17.6-2.2-17.9-10.7
			C171.3,406.8,172.1,403.9,174,401.6z"/>
		<path class="st0" d="M388.3,401c4.8-4.5,12.8-4.1,17.8-0.2c2.5,2.7,3.9,6.2,4,9.9c-1,6.9-8.1,12.1-15,10.8
			c-5.9-0.8-11.6-6.4-10.8-12.7C384.1,405.7,386.2,403.1,388.3,401z"/>
		<path class="st0" d="M266.8,475.7c5.4-1.8,10.8,0.8,15.9,2.2c6.3,2.6,13.4,1.9,19.6-0.8c4.9-1.5,10.3-3,15.3-0.8
			c4.7,1.6,7.8,5.6,10.7,9.4c1.3,4.5,1.6,9.7-1.8,13.3c-2.1,3.4-6.3,3.8-9.9,4c2.3,5,1.8,11-2.1,15c-5.1,6.7-13.5,8.5-21,11.1
			c-0.2,10-0.9,20-1.6,29.9c-1-2-1.9-4.1-1.9-6.4c-0.4-7.8,0-15.7-0.3-23.5c-6-2.2-12.5-3.4-17.7-7.4c-3-2.4-5.8-5.5-6.8-9.3
			c-0.6-3.1,0.1-6.2,0.5-9.3c-3.2-0.6-6.9-1.2-9-4c-3.1-3.1-3-7.7-2.9-11.7C256.3,482.1,260.8,477.4,266.8,475.7z"/>
	</g>
	<g id="_x23_f85d93ff">
		<path class="st1" d="M232.8,16.3c13.9-2.7,28.1-3.6,42.2-4.7c13,0.3,26-0.6,39,0.7c18.2,1.2,36.3,3.8,53.9,8.5
			c22.6,5.4,44.5,13.4,65.1,24c11.7,6.4,23.4,12.8,33.8,21.2c20.5,14.9,38.2,33.8,51.8,55.2c4.3,7.3,9.1,14.5,11.9,22.6
			c-7.4,1.1-14.8,2.6-22.3,3.1c-1.5-4.5-4-8.7-4.7-13.4c0.1-1.3-0.6-2.4-1.8-2.9c-3.2-2.3-4.7-6.2-7.3-9.1
			c-12.2-15.5-31.2-23.8-50.1-27.9c-27.7-6.1-56.2-5-84.3-4.8c-6.3,0.7-12.6,0.8-19,0.7c-30.7,0-61.3,0.1-92,0
			c-10-0.1-20,0.5-29.9-0.6c-10.7-0.2-21.4,0-32-0.3c-20.4,0.6-41.2,1.7-60.9,7.5c-12.6,3.6-24.6,9.8-34.6,18.4
			c-5.6,5.6-10.5,11.8-14.3,18.8c-2.3,4.3-3.7,9.1-6,13.4c-7.2-1.3-14.6-1.6-21.7-3.6c13.5-28.9,34.3-54.5,59.7-73.8
			c29.5-23.2,64.6-38.8,100.9-47.9C217.8,19.7,225.3,18,232.8,16.3z"/>
		<path class="st1" d="M53.8,223.6c4.9-2.9,9.1-6.7,13.9-9.7c1.7,6.3,3.2,12.6,5.4,18.7c4.5,12.4,11.6,23.7,20.4,33.4
			c-10,4.2-20.6,7.5-29.8,13.4c-7.2,4.5-14.4,10.2-17.7,18.3c-4.2,10.1-5.1,21.2-5.7,32.1c-1.1,13.3-0.2,26.7,0.4,40
			c2.3,30.9,6.2,61.7,11.8,92.2c0.8,3.9,1.5,7.9,1.5,11.9c-3.4-6.3-5.7-13.1-8.2-19.8C28.4,404,21.5,350.7,22.3,297.8
			c0-23.9,2.5-47.7,5.5-71.4C36.4,224.6,45.3,225.5,53.8,223.6z"/>
		<path class="st1" d="M512.2,213.8c5.2,2.9,9.2,7.6,14.6,10.2c8.4,1.2,16.9,1.1,25.2,2.2c6.2,38.8,7.1,78.4,4.6,117.6
			c-3.3,42-11.4,84-27.1,123.3c-0.8,2.1-1.8,4.1-3.2,5.8c0-5.2,1.4-10.3,2.2-15.4c5.6-33.7,10.3-67.6,11.6-101.8
			c0.8-11.5,0.1-22.9-0.8-34.4c-1-7.8-2.1-15.6-4.9-22.9c-2.6-6.8-7.9-12.1-13.8-16.2c-10.4-7.3-22.4-11.9-34.4-15.9
			c4.3-5.6,9-10.9,12.5-17c4.7-8.3,8.7-17,10.9-26.3C510.3,219.9,511.1,216.8,512.2,213.8z"/>
	</g>
	<g id="_x23_ffffffff">
		<path class="st2" d="M246.1,102.6c6.8,0.5,11.1-6.9,17.9-6.9c6.6,0,13.3-0.3,19.9,0.3c0,1.2,0,2.4,0,3.5c-4,0-7.9,0-11.9,0.1
			c-0.2,7.1-0.3,14.2,0.1,21.2c3.9,0.2,7.9,0.1,11.8,0.1c0,1.2,0,2.4,0,3.6c-7.6,0-15.1,0.2-22.7-0.1c-5-2.5-9.1-6.5-14.2-9
			c-8.3-0.3-16.6,0.1-24.8-0.2c-1.9,0-4.3-1.4-4-3.6c0.1-3.1-1.3-8.1,2.9-9C229.5,102.2,237.8,102.7,246.1,102.6 M251.4,105.1
			c0.1,3,0.1,6,0.3,9.1c3.2,2.3,6.2,5.2,9.9,6.9c0-7.4,0.1-14.8,0.1-22.2C258.2,100.7,254.8,102.8,251.4,105.1 M220.3,105.6
			c-0.1,2.6-0.3,5.2,0.9,7.6c7.7-0.1,15.4,0.2,23,0c-5.2-2.5-11.1-3.5-16.8-4.1c-2.4-0.1-3.6-2.4-4.7-4.1
			C222.2,105.1,221,105.5,220.3,105.6z"/>
		<path class="st2" d="M295.7,96.1c5.8-1,11.6,0.3,17.4-0.5c6.7-1,11.5,4.4,17.2,6.7c8.9,0.4,17.9,0,26.8,0.2
			c1.9,0.1,4.5,1.2,4.6,3.4c0.1,2.4,0.2,4.9-0.2,7.3c-1,1.4-2.7,2.2-4.4,2.1c-7.7,0.1-15.3-0.1-23,0c-1.5-0.2-2.7,0.8-3.8,1.5
			c-3.6,2.3-7.1,4.9-10.8,7.1c-1.3,0.8-2.9,0.5-4.3,0.6c-6.5-0.1-13,0.2-19.5-0.2c0-1.1,0-2.3,0-3.4c4-0.2,7.9-0.1,11.9-0.1
			c0.1-7.1,0.1-14.3,0-21.4c-4,0-7.9,0-11.9-0.1C295.7,98.3,295.7,97.2,295.7,96.1 M318,98.8c-0.1,7.4,0.5,14.8,0.3,22.3
			c3.4-2.2,7-4.4,9.8-7.4c0.4-2.9,0.2-5.9,0.2-8.8C324.9,102.9,321.6,100.6,318,98.8 M352.7,109.1c-6,0.6-12,1.9-17.7,4.2
			c7.8,0,15.6,0.2,23.3-0.2c2-1.7,1.1-4.7,1.5-7c-0.9-0.5-1.7-0.9-2.6-1.3C356,106.4,355.1,108.9,352.7,109.1z"/>
		<path class="st2" d="M129.6,104.2c20.4-5.3,41.5-6.8,62.4-7.7c16.3-0.5,32.6-0.1,48.8,0.7c0.1,0.6,0.2,1.7,0.3,2.3
			c-20,0.2-40.1-0.8-60.1,0c-7.9,0.6-15.8,1.1-23.6,1.9c-2.1,5.2-3.9,10.6-5.4,16.1c2.3,0.3,4.7,0.5,7.1,0.4c21,0,42,0.4,63,0.6
			c4.4,0.1,8.7,0.6,13.1,1.2c1.9,0.6,3.4-1.1,5.1-1.8c0.8,4.2,5.3,4.5,8.5,6.1c14.2,6.2,25.1,19.1,29.2,34c5.4,18.6,1.5,38.9-8,55.5
			c-6.7,11.2-15.1,21.4-24.5,30.4c-20.7,19.8-47.5,34.2-76.3,36.8c-17.8,1.8-36.5-1.6-51.7-11.3c-21.2-13.3-35.1-36.5-39.9-60.8
			c1.4-0.2,2.7-0.5,4.1-0.7c-2.2-12.4-0.9-25,0.9-37.3c-1.8-0.4-3.6-0.9-5.4-1.2c2.3-16.9,9.2-33.3,20.7-46
			C106.2,114.1,117.5,107.4,129.6,104.2 M123,119.4c-0.2,3.3-0.4,6.6-0.4,9.9c-10.2,0.3-19.3,6.5-25.9,14
			c-9.8,11.5-13.7,26.7-14.9,41.5c-0.7,19.3,3.5,39.6,15.7,54.9c-3.1,3.5,0.3,7.3,2.4,10.2c6.6,9,16.5,14.6,26,20
			c2.2,1.3,4.6,2.3,7.1,3c2.1-5.6,3.6-11.3,5.9-16.8c4.1,0.3,8.2,0.9,12.3,1c-0.2,6.7-1.8,13.3-1.9,20c9.7,1.2,19.9,1.9,29.3-1.2
			c0.1-6.3-0.8-12.6-0.7-19c2.7-1.3,5.9-1.2,8.8-1.9c0.5,6.8,0.7,13.5,1,20.3C218.5,267,245,246,263.3,220
			c9.6-13.3,15.2-29.7,14.9-46.2c-0.5-10.3-3.1-20.6-8.8-29.3c-9-14.1-25.3-22.9-41.9-23.5c-1.8,3.3-3.7,6.7-5.5,10
			c-7,0.1-14,0-20.9-0.4c-16-0.2-32.1-0.3-48.1-0.6c-0.9-3.4-1.7-6.7-2.4-10.1C141.4,119.1,132.2,119.5,123,119.4z"/>
		<path class="st2" d="M338.7,97.4c17.7-1.3,35.5-1.5,53.3-0.7c20.4,0.9,41,2.6,60.8,8.2c16.7,4.9,30.7,17,39.1,32
			c5.9,9.9,8.9,21,11.1,32.2c-1.8,0.6-3.6,1-5.5,1.4c1.3,12.5,2.9,25.2,0.8,37.7c1.3,0.1,2.6,0.2,3.8,0.4
			c-3.1,17.9-11.8,34.8-24.1,48.1c-12.5,13.3-29.7,22.1-47.9,23.9c-21.2,2.4-42.8-2.7-61.7-12.3c-15.5-7.9-29.5-18.9-41.3-31.7
			c-9.4-10.6-18.3-22.2-23.1-35.7c-5.7-15.5-6.4-33.1-0.2-48.5c5.9-14.9,18.9-26.4,34.1-31c0.3-1.1,0.6-2.2,0.9-3.4
			c1.6,0.3,3,1,4.2,2c6.2-1.1,12.6-1.6,18.9-1.5c19.3-0.2,38.7-0.5,58-0.6c2.6,0,5.2-0.1,7.9-0.4c-1.8-5.4-3.4-10.8-5.5-16
			c-20.2-2.3-40.6-2.7-61-2.2c-7.5,0.1-15,0.3-22.5,0.1l-0.6-0.9L338.7,97.4 M429.3,119.9c-0.8,3.4-1.6,6.9-2.6,10.3
			c-22.9,0-45.8,0.5-68.7,0.9c-1.9-3.3-3.8-6.6-5.5-10c-15.4,0.3-30.6,7.9-39.9,20.3c-7.7,10.1-11.1,22.9-11,35.4
			c0.3,16.1,6.3,31.7,15.8,44.5c18.2,25.4,44.4,45.8,74.7,54.1c0.4-6.7,0.4-13.4,0.7-20.1c2.9,0.3,5.9,0.8,8.8,1.2
			c0.3,6.5-0.3,13.1-0.3,19.6c9.5,3.1,19.7,2.5,29.4,1.2c-0.3-6.7-1.8-13.3-2.4-19.9c4.3-0.1,8.5-0.8,12.8-1
			c2,5.3,3.5,10.8,5.5,16.1c1.3,1,2.9-0.4,4.2-0.8c12.5-6.6,25.9-14.1,32.6-27.3c0.9-1.6-0.6-3.1-1.2-4.6
			c11.8-14.5,15.9-33.7,15.9-52c-0.8-15.4-4.4-31.5-14.4-43.7c-6.5-7.8-15.9-14.5-26.4-14.6c-0.2-3.3-0.6-6.7-0.8-10
			C447.5,119.6,438.4,119.1,429.3,119.9z"/>
		<path class="st2" d="M276,103.7c9.1-0.2,18.2-0.1,27.3,0c0.1,4.6,0.3,9.2-0.2,13.8c-9-0.1-18,0-27,0
			C275.7,112.9,275.9,108.3,276,103.7z"/>
		<path class="st2" d="M501.7,130.5c1.1,0.5,1.8,1.6,1.8,2.9C502,134,500.7,131.5,501.7,130.5z"/>
		<path class="st2" d="M62.1,171.9c5,0.5,9.9,1.3,14.8,2.1c-0.4,10-1.6,20-1,30.1c-5.7,0.2-11.4,0.1-17.1,0.2
			C58.2,193.4,59.3,182.4,62.1,171.9z"/>
		<path class="st2" d="M503.2,174c4.8-0.9,9.7-1.6,14.6-2c2.8,10.5,3.3,21.4,3.4,32.2c-5.9,0.2-11.7,0-17.6-0.1
			c0.3-9.8,0.3-19.7-1.1-29.4L503.2,174z"/>
		<path class="st2" d="M270.2,290.3c29.4-0.8,58.9,0,88.2,2.3c24.6,2,49,6.1,73.6,9c4.5,0.7,9.1,0.8,13.5,2c3,1.2,5.9,2.7,8.5,4.5
			c2.8,7.9,2.4,16.8,6.8,24.1c4.6,5.2,9.3,11.4,8.7,18.7c-0.1,2.8-1.8,5.2-2,8c-0.1,9.7-3.6,19-5.1,28.5c-2.7,5.4-2,11.7-3.6,17.4
			c-0.8,7.5-3.1,14.6-5.1,21.8c-1,5.3-2.8,10.4-4.7,15.4c-1.4,6.7-1.8,13.7-4.5,20.2c-2.9,6.6-3,14-5.5,20.7
			c-1.9,5.2-3.4,10.6-5.3,15.8c-1.5,3.5-0.5,7.4-1,11.2c-0.3,3.7-1.6,7.6,0.5,11c2.4,3.8,4.9,7.7,8.6,10.3c3,2,6.2,3.3,9.5,4.8
			c-4.1,4.8-7.4,10.2-10.3,15.8c-5,10.3-5.7,22.1-10.3,32.5c-1.8,4.5-4.4,8.7-7.6,12.4c-1.9,2.2-3.8,4.8-6.7,5.7
			c0-11.1,6.6-21.4,5-32.6c-1.6-15.1-12.5-27.9-25.9-34.2c-3.6-1.9-7.7-2.8-11.3-4.7c-1.5-1.8-1.7-4.4-2.5-6.5
			c-1.2-4.5-3.6-8.8-7.4-11.6c-5.9-4.4-12.1-8.6-16.8-14.3c-3.9-4.9-5.4-11.1-8.5-16.4c-6.7-11.9-16.7-22.3-29.5-27.3
			c-7.9-3-16.4-4.5-24.8-3.4c-7,0.9-14.2,1.1-21.1-0.7c0-12.5,0.1-25.3,4-37.4c3.1-10.3,10.7-18.7,19.2-24.9
			c6.6-4.8,14.1-8.1,21.6-11.2c3.8-1.5,6.7-4.8,8-8.7c2.4-7.2,1-15.1-2.1-21.8c-5.2-10.7-14.4-18.8-23.6-26.2
			C289.3,311.6,278.2,302.2,270.2,290.3 M377,380.7c-5.4,3.1-9.2,8.3-12.7,13.3c-4.1,2.1-6.8,5.9-10.1,8.9c-1.8,1.8-4.2,3.8-3.7,6.6
			c2,3.5,5.1,6.2,7.3,9.6c8.3,11.7,21.2,20.3,35.4,22.7c7.9,1.9,16.3,1.1,23.8-2c12.3-4.9,20.5-16.6,24.8-28.7
			c-0.1-0.3-0.4-1-0.5-1.3c-2.7-15-13.7-28.2-28.1-33C401.4,372.2,387.6,373.8,377,380.7z"/>
		<path class="st2" d="M150,399.6c3-3.9,7.3-6.6,11.4-9.2c-1.6,3-3.3,6-4.5,9.3c-3.2,9.1-1.2,19.8,4.9,27.3
			c4,5.5,10.3,8.6,16.6,10.6c-14.9,0.3-27.6-11.6-32.1-25.2C146,408,147.8,403.5,150,399.6z"/>
		<path class="st2" d="M423.9,399c-1-3-3-5.4-4.1-8.3c5.2,2.6,9.7,6.6,13.4,11.1c0.9,4.7,2.8,9.8,0.2,14.3
			c-5.4,11.3-16.3,21.7-29.5,21.1c4.4-1.5,8.6-3.5,12-6.6C424.5,422.9,428,409.9,423.9,399z"/>
		<path class="st2" d="M208.1,394c4.4,3.2,8.6,6.7,13.2,9.6c1.5,1.1,3.6,2.2,3.5,4.3c0.4,3.2-2.7,5.1-4.3,7.4
			c-5.6,7.7-12.7,14.7-21.6,18.5c3.7-3.3,7.6-6.7,9.8-11.2C213.6,413.7,213.4,402.5,208.1,394z"/>
		<path class="st2" d="M358.7,403.8c4.8-2.4,9-5.9,13.2-9.2c-2.1,6.1-4.2,12.6-2.7,19.1c1,7.1,5.2,13.1,10.1,18.1
			c-9.7-3.6-15.7-12.6-21.9-20.3C355,409,356.8,405.9,358.7,403.8z"/>
		<path class="st2" d="M163.2,405.7c-1.6-4.7,4.1-9.9,8.5-7.4c1.2,0.5,2,1.6,2.9,2.5l-0.6,0.8c-1.9,2.3-2.6,5.2-3.1,8.1
			C168.4,412.4,163.5,408.8,163.2,405.7z"/>
		<path class="st2" d="M406.1,400.8c2-1.8,4.8-4.2,7.6-2.8c4.9,1.3,5.7,8.5,1.9,11.3c-1.5,1.4-3.7,1.1-5.5,1.3
			C410,407,408.6,403.5,406.1,400.8z"/>
	</g>
	<g id="_x23_a1c7caff">
		<path class="st3" d="M445.6,132.5c5.4-0.3,10.9-0.5,16.3-0.1c10.2,2.9,18.9,10.3,24.2,19.4c8.2,13.6,9.6,30,8.6,45.6
			c-1.1,13.1-4.6,26.1-11.8,37.2c-3.5,4.4-7.1,9.2-12.4,11.6c-10.7,5.3-22.8,6.7-34.5,8c-10,0.5-20,0.6-29.9,0.1
			c-17.7-1.5-35.2-7.2-49.7-17.7c-10.8-7.7-20.1-17.5-27-28.9c-7.5-12.5-10.7-27.6-8.2-42c2.1-11.3,9.2-21.9,19.7-27.1
			c7.1-3.9,15.3-4.7,23.3-5.1c11.3-0.1,22.6,0.2,33.9-0.1C413.8,132.2,429.8,133.9,445.6,132.5z"/>
		<path class="st3" d="M116.5,133.4c14.8-0.9,29.8-0.1,44.7-0.2c17.3,0.8,34.7-0.3,52,0.9c11.4-0.7,23.6,1.5,32.5,9.1
			c9.7,8.2,14,21.2,14,33.5c-1,13.3-5.3,26.4-13.4,37.1c-15.5,21.1-39.5,36-65.6,39.4c-10.8,1.8-21.7,1-32.6,1
			c-13.4-1.3-27.3-2.8-39.5-9.1c-10.7-6.4-16.7-18.2-20.1-29.8c-3.9-11.4-3.2-23.5-3-35.3c1.6-13.9,6.1-28.4,16.9-37.9
			C106.4,138.2,111,134.8,116.5,133.4z"/>
		<path class="st3" d="M354.2,402.9c3.3-3,6.1-6.8,10.1-8.9c-2,3.2-3.7,6.5-5.6,9.8c-1.9,2.1-3.7,5.2-1.3,7.7
			c6.2,7.7,12.3,16.7,21.9,20.3c3.8,2.2,7.5,4.9,11.9,5.8c4.2,1.1,8.4,0.1,12.6-0.3c13.2,0.5,24.2-9.9,29.5-21.1
			c2.5-4.5,0.7-9.7-0.2-14.3c2.8,3.2,5.2,6.7,7.7,10.1c0.1-0.5,0.3-1.6,0.4-2.1c0.1,0.3,0.4,1,0.5,1.3
			c-4.3,12.1-12.5,23.8-24.8,28.7c-7.5,3.1-15.9,3.9-23.8,2c-14.2-2.4-27.1-11-35.4-22.7c-2.2-3.3-5.3-6.1-7.3-9.6
			C350,406.7,352.4,404.7,354.2,402.9z"/>
		<path class="st3" d="M266.4,451.1c2.3-0.4,4.7-1.2,7-0.6c6.9,1.8,14.1,1.6,21.1,0.7c8.4-1.1,17,0.4,24.8,3.4
			c12.8,5.1,22.9,15.5,29.5,27.3c3.2,5.3,4.6,11.6,8.5,16.4c4.7,5.7,10.9,10,16.8,14.3c3.8,2.8,6.3,7,7.4,11.6
			c0.8,2.1,0.9,4.7,2.5,6.5c3.6,1.9,7.7,2.7,11.3,4.7c13.4,6.3,24.3,19.2,25.9,34.2c1.6,11.2-5,21.5-5,32.6
			c-2.3,5.7-4.8,11.8-9.7,15.9c-7.9,7.2-18.7,9.3-28.8,11.9c-7,0.7-14.2,0.3-21-1.4c4.1-4.5,7.5-9.9,8-16.1c0.4-4.7,0.4-10-2.6-13.9
			c-5.6-5.7-14.6-5.3-20.5-10.5c-5.1-4.3-8.3-10.8-8.8-17.4c-0.5-7.6,0.1-15.3,2.6-22.5c3.4-11.1,10.3-21.5,9.5-33.5
			c1.1-12.1-7.4-22.5-16.8-29c-2.9-3.8-6-7.8-10.7-9.4c-4.9-2.3-10.4-0.7-15.3,0.8c-6.5,0-13.1-0.6-19.6,0.8
			c-5.1-1.4-10.5-3.9-15.9-2.2c-6,1.7-10.5,6.4-13.1,11.9c-8.2,10-8.1,23.7-7.1,35.9c1.6,10.6,9.1,18.8,13.5,28.3
			c2.5,5.3,3,11.5,1.2,17.1c-2.8,8.9-9.5,15.8-16.2,21.9c-2.9,2.7-6.6,4.7-8.8,8c-2.6,5.9-2.2,13.5,2.2,18.5c2.3,2.1,5.3,3.2,8,4.8
			c-11.9,7.4-26.3,10.9-40.2,9c-10.3-2.6-21.2-5-29.7-12c-5.2-4-8.2-10-11.3-15.7c-3-7.6-3.9-15.7-5.2-23.7
			c-1.6-9.7-0.5-20,4.2-28.7c5.6-10.7,15-19.1,25.7-24.4c12.4-5.2,22.6-15.3,28.4-27.4c4.2-12.1,10.2-23.8,19.3-32.8
			C245.5,458.7,255.6,453.2,266.4,451.1z"/>
		<path class="st3" d="M285.7,585.5c4.1-2.5,9.6-1.5,13.3,1.4c4.9,3.6,7.9,8.9,11.1,13.9c6.7,9.6,15.7,17.5,26,23
			c3.4,1.8,7,3,10.3,4.9c-5.8,2.2-11.5,4.3-16.7,7.7c-6.5,4.2-14.3,5-21.7,6.2c-13.8,2.1-28.1,1.2-41.3-3.4c-4-1.4-7.1-4.3-11-6
			c-4.4-2.2-9.3-3.4-13.9-5.3c10.4-5.1,20-12.1,26.9-21.4C274.4,599.5,277.6,590.1,285.7,585.5z"/>
	</g>
	<g id="_x23_5f564dff">
		<path class="st4" d="M282,243.3c5-2.3,11.1-1.7,16.2,0C292.7,243.5,287.4,243.5,282,243.3z"/>
		<path class="st4" d="M265.6,251.8c3.1-0.7,6.3-0.5,9.4-0.6c8.8,0,17.5-0.2,26.3,0.2c5-0.1,10.1-0.3,14.9,1.4
			c0.7,0.6,1.4,1.3,1.9,2c-1.9,0.5-3.9,0.7-5.9,0.6c-0.4,0.4-1.1,1.2-1.5,1.6c3.7,2.6,8.9-0.2,12.1,3.1c2.5,2.2,4.3,6,8.1,6
			c-1.5-1.6-2.9-3.3-4-5.2c4.6,2.3,10.3,5.1,10.9,10.9c-1.1,0.2-2.2,0.4-3.4,0.6c-1.3,2.5-3.1,4.8-5.4,6.4c0.6,1.1,1.2,2.1,1.8,3.2
			c-4.6,0.9-9.2,0.5-13.8,0.5c-5.5-0.1-10.9,0.2-16.4-0.1c-0.2-0.5-0.6-1.6-0.7-2.1c-7.5,3.5-16.1,2.5-24,1.3
			c-12.1,2.6-24.7-0.7-36.8,2c-8.4-0.5-16.7,1.2-25,1.1c3.3-1.7,6.4-3.8,10.1-4.6c2.3,0.1,4.5,0.9,6.7,1.4c2.1-2.8,4.5-5.4,7.2-7.5
			c-0.4-0.4-1.2-1.3-1.6-1.8c2.3-2.4,5.2-4.2,8.1-5.9c3.5-2.1,6.4-5.3,10.3-6.7c-0.8,2.6-2.2,5-3.7,7.3c-1.9,2.6-0.4,6,0,8.9
			c1.7-0.7,3.3-1.6,4.6-2.9c-0.8-2.3-2.3-4.9-0.7-7.2c1.8-2.9,3.1-6,4-9.2C260.9,254.5,263.2,253,265.6,251.8z"/>
		<path class="st4" d="M86.6,277.4c4.3-1.6,8.6-4,13.3-4.3c3.9,1.8,6.9,5.1,10.5,7.5c4.9,3.6,10.8,5.5,16.4,7.7
			c5.3,2.2,10.8,3.6,16.3,5c-6.3,1.4-12.9,2.6-19.4,2c-1-1.2-2.2-2.4-3.3-3.6c-0.4,1.5-0.8,2.9-1.2,4.4c-5-0.4-10,0.1-15-0.6
			c-6.5,0.4-12.8-1.3-19.3-1.8c1.2,1.9,2.6,3.7,4.7,4.7c2.2,0.4,4.4-0.1,6.6,0.5c6.5,1.5,13.2,2.1,19.9,2.3
			c-8.9,6.6-19.8,11.1-31.1,10.4c-4.6,0.2-8.9-1.8-13.2-2.9c-0.3,4,4.2,6,7.3,7.2c10.9,2.9,22.6,1,32.6-4c-0.4,6.5-3.2,12.5-6.6,18
			c-3.1,2.5-6.5,4.8-9.8,7.1c-2.3,1.7-5.4,1.8-7.8,0.2c-10.2-5.8-22.2-7.9-33.9-7.8c0-4.5-1.6-8.9-1.1-13.4
			c0.8-7.3,2.4-14.9,7.1-20.8C66.4,286.6,76.5,281.4,86.6,277.4z"/>
		<path class="st4" d="M476.5,275.2c2.6-2.3,6.1-0.5,8.9,0.4c6.6,2.8,13.4,5.4,19.3,9.6c7.5,4.2,13.8,10.9,16.4,19.2
			c0.8,3,1.2,6.1,2,9.1c1.5,5.2,0,10.5-0.7,15.7c-11.7,0.5-23.7,2.1-34.1,7.7c-1.5,0.7-3,2-4.8,1.4c-5.2-1.4-9.3-5.2-13.2-8.7
			c-3.5-5.2-5.6-11.3-5.9-17.6c11.6,5.6,25.9,7.6,37.7,1.3c2.5,1.5,5.4,2.2,8.3,1.5c-1.8-1.1-3.8-1.8-5.8-2.4
			c-0.3-1.3-0.6-2.6-0.8-3.9c-3.7,0.5-7,2.7-10.8,2.9c-4.1,0.3-8.2,0.4-12.3-0.4c-7.6-2.3-15-5.4-21.5-10c8.1,0.6,16.2-0.7,23.9-3.1
			c2.9-1,6.1-1.8,8.3-4.2c-6.1,0.1-12.1,2-18.3,1.8c-5.4-0.2-11.3,2.2-16.3-0.7c-2.5,0.7-5.1,1.6-7.8,1.1c-4.4-0.6-9-0.6-13.3-1.7
			c-0.2-0.2-0.5-0.6-0.7-0.8c6-0.2,11.4-2.6,16.9-4.6C460.8,285.5,469.3,281.2,476.5,275.2z"/>
		<path class="st4" d="M338.3,274.9c3.8-0.4,6.2,2.9,9.3,4.5c1.5,0.7,2.7,1.9,3.5,3.4c-2.1,0.7-4.2,0.9-6.4,0.8
			c-0.5-1.5-1.1-3-1.6-4.5c-2.1,0.5-4.2,1-6.3,1.5C335.9,278.4,337.3,276.6,338.3,274.9z"/>
		<path class="st4" d="M355.5,284.2c-1.9-0.4-1-3.3,0.8-3.1c4.1-0.3,7.5,2.3,10.8,4.4C363.2,284.7,359.3,284.6,355.5,284.2z"/>
		<path class="st4" d="M54.4,337c9.8,1.6,19.7,3.7,28.6,8.1c-0.8,3.9-3.6,7-4.3,10.9c0.3,2.6,1.9,4.8,3.3,6.9
			c0.7,1.5,2.4,0.7,3.4,0.1c-1.7-2.1-3.8-3.8-5-6.1c1.3-3.4,2.1-7.4,5-9.9c3.6,0.3,6.5,3.1,9.6,4.9c2.1,1.1,3,3.3,3.4,5.5
			c6.3,29.7,13,59.3,19.5,88.9c-0.5,0-1.6-0.1-2.1-0.2c1.1,1.5,2.5,2.9,3.1,4.7c2,10.6,4.2,21.1,6.5,31.7c1.4,2.9,1.2,6,0.6,9.1
			c3.6,4.3,3.4,10.1,5,15.2c0.9,4.1,2.9,8.2,2.6,12.4c-4,3.4-8.1,6.7-12.7,9.3c-8.6,3.7-18.2,4.6-27.5,4c-2-2.9-3.2-6.2-4.1-9.6
			c1.8-1.8,4.1-3.3,5.5-5.5c1.3-3.3,1.8-6.9,2.8-10.2c1.8,0.2,3.6,0.4,5.4,0.7c-1.9-1.6-3.4-3.6-3.7-6.1c-3.5-0.7-8.8-3.2-7-7.5
			c-1.5-2.1-2.8-4.2-3.9-6.5c2.5-2.2,4.9-4.5,8-5.7c1.5,0.2,3,0.7,4.6,1c2.3-1.4,3.8-3.8,5.9-5.4c1.3-0.4,2.8-0.3,4.1-0.3
			c0.8-1.9,1.5-3.8,2-5.8c-4.4,3.1-9.9,4.5-13.2,8.9c-1.8-0.1-3.5-0.1-5.3-0.2c-1.6,1.3-3,2.8-4.7,3.9c-1.2,0.2-2.3-0.5-3.5-0.7
			c-3.1,1.9-7.1,0.1-9-2.6c-2.3-6.2-2.6-12.9-4.7-19.2c-4.1-17.3-6.6-35-9.6-52.5c-2.4-18-5.1-36-6.7-54.2
			C55.5,348.9,55.4,342.9,54.4,337z"/>
		<path class="st4" d="M508.1,340.6c3.8-2.4,8.5-2.2,12.7-3.6c0.4,5.9-0.6,11.7-1.2,17.6c-2.4-0.2-6,0.7-7.1-2.2
			c0-2.2,0.4-4.4,0.6-6.6c-1.2,0.9-2.6,1.5-3.5,2.8c-0.4,1.9-0.2,3.9-0.2,5.8c2.7,0.8,5.5,1.6,8.2,2.4c-0.2,0.8-0.5,1.7-0.8,2.5
			c0.7,1.1,1.9,2.1,1.9,3.5c-0.2,6.7-1.9,13.2-2.3,19.9c-0.3,4.9-1.1,9.8-2.1,14.6c-1,5.1-0.5,10.6-2.5,15.5c-3.2,0.2-5.6-1.8-7.6-4
			c-0.6,1.2-1.3,2.5-1.9,3.8c-2.6-1.3-5.3-2.6-8-3.5c0.1,1,0.1,2.1,0.2,3.1c-1.3,0.4-2.5,0.9-3.7,1.4c1.8,0.9,3.6,1.8,5.3,2.7
			c-1.8,1.4-4.1,1.1-6.2,1c-0.1,1-0.1,2.1-0.2,3.2c3.3-2.4,8.1-0.6,9.9,2.8c0.2,2.1-0.1,4.2-0.2,6.3c1.8,2.1,4,4,5.1,6.6
			c0,2-0.7,3.9-1.1,5.8c1.2-0.6,2.4-1.2,3.6-1.8c-1.2,15.8-6.2,31-9.4,46.4c-3.9,14.4-8,28.8-13.1,42.8c-0.6,1.1-1,3.1-2.6,3.1
			c-8.5,0.4-17.4,0.2-25.3-3.3c-4.9-3.2-10.8-5.7-14-10.8c-0.6-3.5,1.2-6.8,2.2-10c0.6-2.2,3.5-2.6,4.4-4.6
			c-0.2-3.7-1.8-7.3-1.1-11.1c0.4-2.8,1-5.7,1.4-8.5c1.6,0.8,3.2,1.4,4.8,2c-1-2.7-3.3-5.1-2.9-8.2c0.4-3.3,1.8-6.4,3.1-9.5
			c2.6-0.5,5.5-0.6,7.6-2.5c2.7-2.3,5-5,7.8-7.2c-0.5-0.3-1.5-0.8-2-1.1c-2.4,2.6-4.4,5.8-7.9,7.2c-1.9,0.8-3.9-0.2-5.8-0.4
			c1.6-7,2.7-14.1,4.7-21c1.8,0.2,3.5,0.4,5.3,0.5c-1.5-1.6-3.4-2.7-4.8-4.3c1.1-6.1,2.7-12.1,4.3-18.1c2-12,4.8-23.8,7.8-35.6
			c1.4,0.9,2.7,1.9,3.9,3c-0.1-1.2-0.1-2.5-0.2-3.7c1.4-0.1,2.8-0.3,4.2-0.4c-0.4-1-0.9-2-1.3-2.9c3,0.4,5.8,1.6,8.7,2.4
			c3.2-0.8,5.9-2.7,8.6-4.5c-2.3-1.9-4.3,1.6-6.7,1.9c-4.9,0.4-9.4-2.1-14.1-2.7c0.1-2.8-1.3-6.4,0.6-8.7c5.3-1.9,9-6.9,14.6-8.2
			c3.7,1.1,6.1,4.4,9.3,6.3c2.6,0.2,5.3-0.4,7.9-0.9c-1.3-1.5-3.3-1.1-5-1.1c1.2-1.4,2.1-3.4,4-4.1c2.6,0.1,5.9,0.6,6.9,3.5
			c0.7-0.2,1.5-0.5,2.2-0.7c-1-1.4-2-2.8-3-4.2c0.6-0.9,1.2-1.8,1.9-2.7c-3,0-6,0.1-9.1,0.3c-1.5,1.9-2.8,4.1-4.6,5.7
			c-2.2,1.3-4.2-0.9-5.9-2.1c-1.8-1.6-4-2.4-6.3-3.1c0.9-2.4,2.2-4.7,2.5-7.3c-0.4-1.6-1.7-2.9-2.6-4.2c4-2.5,8.2-4.3,12.7-5.8
			C503.3,341,505.9,341.7,508.1,340.6z"/>
		<path class="st4" d="M479.1,353.7c2.1-2.6,5.9-2.4,8.9-2.8c-1.6,6.4-6.5,11.3-11.9,14.8C476.6,361.6,477.1,357.4,479.1,353.7z"/>
		<path class="st4" d="M503.9,414.9c2.4,0,4.7,0.3,6.9,1.1c0.4,6.3-0.8,12.6-2.3,18.7c-2.5-1.5-4.9-3.4-7.1-5.3c0.4-2,1.3-4,1.1-6.1
			c-1-1.8-3.4-2.7-4.1-4.6c0.2-2.4,3.1-2.6,4.9-2.3C503.5,416.1,503.7,415.3,503.9,414.9z"/>
		<path class="st4" d="M78.1,484.1c2.4,1.6,5.2,2.7,7.7,4.1c2.6,2.2,1.9,5.9,2.1,8.9c-2,0.1-4.1,0.5-6,1.1
			C79.9,493.8,79.1,488.9,78.1,484.1z"/>
		<path class="st4" d="M82.2,500c2.8,0,5.7-0.3,8.5,0.3c2.3,0.7,3.7,2.9,5.3,4.6c-1.8,5.2-3.7,10.6-7.1,15c-1-1.4-1.8-2.9-2.3-4.5
			C85.1,510.3,83.4,505.2,82.2,500z"/>
	</g>
	<g id="_x23_fc7100ff">
		<path class="st5" d="M161.4,390.5c4-3.9,10.4-4,15.7-4.8c10.7,0.5,21.8,2.6,31,8.3c5.3,8.5,5.5,19.8,0.8,28.5
			c-2.2,4.6-6.1,7.9-9.8,11.2c-2.6,2.6-6.5,2.8-9.9,3.5c-3.5,0.5-7.2,1.3-10.7,0.4c-6.3-2-12.6-5.2-16.6-10.6
			c-6.1-7.5-8.1-18.1-4.9-27.3C158.1,396.5,159.8,393.5,161.4,390.5 M163.2,405.7c0.3,3.2,5.2,6.8,7.7,4
			c0.4,8.5,10.4,13.9,17.9,10.7c6.4-2.3,10.3-10.7,6.4-16.6c-3.9-7.8-15.5-8.4-21.2-2.2l0.6-0.8c-0.9-0.9-1.7-2.1-2.9-2.5
			C167.2,395.8,161.6,401,163.2,405.7z"/>
		<path class="st5" d="M388.8,386.6c10.4-1.8,21.8-1.6,30.9,4.2c1.1,2.9,3.2,5.3,4.1,8.3c4.1,10.9,0.6,23.9-8,31.6
			c-3.4,3.1-7.7,5.1-12,6.6c-4.2,0.4-8.5,1.4-12.6,0.3c-4.4-0.8-8.1-3.6-11.9-5.8c-4.9-5-9.1-11-10.1-18.1c-1.5-6.5,0.6-13,2.7-19.1
			C376.8,390.5,382.6,387.7,388.8,386.6 M388.3,401c-2.1,2-4.2,4.7-4,7.8c-0.8,6.3,4.9,11.9,10.8,12.7c6.9,1.3,14-3.9,15-10.8
			c1.9-0.2,4,0.1,5.5-1.3c3.8-2.9,2.9-10.1-1.9-11.3c-2.9-1.5-5.6,1-7.6,2.8C401.1,397,393.1,396.5,388.3,401z"/>
	</g>
	<g id="_x23_78797bff">
		<path class="st6" d="M282.7,477.9c6.4-1.4,13-0.8,19.6-0.8C296.1,479.8,289.1,480.5,282.7,477.9z"/>
		<path class="st6" d="M328.2,485.8c9.4,6.5,17.9,16.9,16.8,29c0.8,12-6.1,22.4-9.5,33.5c-2.5,7.2-3.2,14.9-2.6,22.5
			c0.5,6.7,3.7,13.1,8.8,17.4c5.9,5.2,14.9,4.8,20.5,10.5c3,3.9,3,9.2,2.6,13.9c-0.5,6.2-3.8,11.6-8,16.1
			c-18.5-4.9-35.8-16.5-45.4-33.3c-3.8-6.4-9-12.2-16-15.1c-3.5-1.6-7.4-0.3-10.8,1.1c-6.3,2.8-10.2,8.8-13.6,14.5
			c-6,10.5-14.4,19.8-24.6,26.3c-2.7-1.5-5.7-2.6-8-4.8c-4.4-5-4.8-12.6-2.2-18.5c2.2-3.4,5.9-5.3,8.8-8c6.7-6.1,13.4-13,16.2-21.9
			c1.9-5.6,1.4-11.8-1.2-17.1c-4.4-9.5-12-17.7-13.5-28.3c-1-12.2-1.1-25.9,7.1-35.9c-0.1,4-0.2,8.6,2.9,11.7c2.1,2.8,5.8,3.4,9,4
			c-0.4,3.1-1.1,6.2-0.5,9.3c1.1,3.8,3.8,6.9,6.8,9.3c5.1,4,11.7,5.1,17.7,7.4c0.3,7.8-0.1,15.7,0.3,23.5c0,2.3,0.9,4.4,1.9,6.4
			c0.7-10,1.4-19.9,1.6-29.9c7.5-2.7,16-4.4,21-11.1c3.9-4,4.4-10.1,2.1-15c3.6-0.3,7.7-0.7,9.9-4
			C329.8,495.4,329.6,490.2,328.2,485.8z"/>
	</g>
</g>
</svg>
